M48
METRIC,LZ,000.000
;FILE_FORMAT=3:3
;TYPE=PLATED
;Layer: PTH_Through
;EasyEDA v6.5.42, 2024-06-11 14:58:49
;7db2e0652eb0440fb163e0b1e141f317,b485016a937d426fb03638db52ce050d,10
;Gerber Generator version 0.2
;Holesize 1 = 0.306 mm
T01C0.306
;Holesize 2 = 0.915 mm
T02C0.915
;Holesize 3 = 1.000 mm
T03C1.000
%
G05
G90
T01
X054006Y041824
X067457Y036840
X052272Y029772
X067963Y041020
X054760Y047839
X058817Y033964
X072933Y029323
X059748Y053026
X073869Y033084
X059033Y035968
X062783Y052294
X052935Y033575
X056489Y040310
X065514Y039543
X070911Y054475
X056561Y038354
X072129Y050312
X045968Y044545
X069755Y049779
X046622Y050472
T02
X050800Y030436
X053340Y030436
X055880Y030436
X058420Y030436
X060960Y030436
X063500Y030436
X066040Y030436
X068580Y030436
T03
X044577Y035560
X044577Y033020
X044577Y030480
X044577Y027940
M30
