G04 Layer: TopSilkscreenLayer*
G04 EasyEDA v6.5.42, 2024-06-11 14:58:49*
G04 7db2e0652eb0440fb163e0b1e141f317,b485016a937d426fb03638db52ce050d,10*
G04 Gerber Generator version 0.2*
G04 Scale: 100 percent, Rotated: No, Reflected: No *
G04 Dimensions in millimeters *
G04 leading zeros omitted , absolute positions ,4 integer and 5 decimal *
%FSLAX45Y45*%
%MOMM*%

%ADD10C,0.1524*%
%ADD11C,0.2032*%
%ADD12C,0.1500*%
%ADD13C,0.1000*%
%ADD14C,0.2000*%
%ADD15C,0.1001*%
%ADD16C,0.2540*%
%ADD17C,0.3000*%
%ADD18C,0.0137*%

%LPD*%
D10*
X4637277Y3514344D02*
G01*
X4626863Y3503929D01*
X4621784Y3488436D01*
X4621784Y3467607D01*
X4626863Y3452113D01*
X4637277Y3441700D01*
X4647691Y3441700D01*
X4658106Y3446779D01*
X4663440Y3452113D01*
X4668520Y3462528D01*
X4678934Y3493770D01*
X4684013Y3503929D01*
X4689347Y3509263D01*
X4699761Y3514344D01*
X4715256Y3514344D01*
X4725670Y3503929D01*
X4730750Y3488436D01*
X4730750Y3467607D01*
X4725670Y3452113D01*
X4715256Y3441700D01*
X4621784Y3548634D02*
G01*
X4730750Y3548634D01*
X4621784Y3548634D02*
G01*
X4621784Y3585210D01*
X4626863Y3600704D01*
X4637277Y3611118D01*
X4647691Y3616197D01*
X4663440Y3621531D01*
X4689347Y3621531D01*
X4704841Y3616197D01*
X4715256Y3611118D01*
X4725670Y3600704D01*
X4730750Y3585210D01*
X4730750Y3548634D01*
X4621784Y3697223D02*
G01*
X4730750Y3655821D01*
X4621784Y3697223D02*
G01*
X4730750Y3738879D01*
X4694427Y3671315D02*
G01*
X4694427Y3723386D01*
X4421377Y2642107D02*
G01*
X4416043Y2652521D01*
X4405629Y2662936D01*
X4395470Y2668015D01*
X4374641Y2668015D01*
X4364227Y2662936D01*
X4353813Y2652521D01*
X4348479Y2642107D01*
X4343400Y2626360D01*
X4343400Y2600452D01*
X4348479Y2584957D01*
X4353813Y2574544D01*
X4364227Y2564129D01*
X4374641Y2559050D01*
X4395470Y2559050D01*
X4405629Y2564129D01*
X4416043Y2574544D01*
X4421377Y2584957D01*
X4421377Y2600452D01*
X4395470Y2600452D02*
G01*
X4421377Y2600452D01*
X4455668Y2668015D02*
G01*
X4455668Y2559050D01*
X4455668Y2668015D02*
G01*
X4528311Y2559050D01*
X4528311Y2668015D02*
G01*
X4528311Y2559050D01*
X4562602Y2668015D02*
G01*
X4562602Y2559050D01*
X4562602Y2668015D02*
G01*
X4598924Y2668015D01*
X4614672Y2662936D01*
X4625086Y2652521D01*
X4630165Y2642107D01*
X4635500Y2626360D01*
X4635500Y2600452D01*
X4630165Y2584957D01*
X4625086Y2574544D01*
X4614672Y2564129D01*
X4598924Y2559050D01*
X4562602Y2559050D01*
X4621784Y2983229D02*
G01*
X4621784Y2931413D01*
X4668520Y2926079D01*
X4663440Y2931413D01*
X4658106Y2946907D01*
X4658106Y2962655D01*
X4663440Y2978150D01*
X4673600Y2988563D01*
X4689347Y2993644D01*
X4699761Y2993644D01*
X4715256Y2988563D01*
X4725670Y2978150D01*
X4730750Y2962655D01*
X4730750Y2946907D01*
X4725670Y2931413D01*
X4720590Y2926079D01*
X4710175Y2921000D01*
X4658106Y3027934D02*
G01*
X4730750Y3059176D01*
X4658106Y3090418D02*
G01*
X4730750Y3059176D01*
X4637277Y3209544D02*
G01*
X4626863Y3199129D01*
X4621784Y3183636D01*
X4621784Y3162807D01*
X4626863Y3147313D01*
X4637277Y3136900D01*
X4647691Y3136900D01*
X4658106Y3141979D01*
X4663440Y3147313D01*
X4668520Y3157728D01*
X4678934Y3188970D01*
X4684013Y3199129D01*
X4689347Y3204463D01*
X4699761Y3209544D01*
X4715256Y3209544D01*
X4725670Y3199129D01*
X4730750Y3183636D01*
X4730750Y3162807D01*
X4725670Y3147313D01*
X4715256Y3136900D01*
X4647691Y3321812D02*
G01*
X4637277Y3316731D01*
X4626863Y3306318D01*
X4621784Y3295904D01*
X4621784Y3275076D01*
X4626863Y3264662D01*
X4637277Y3254247D01*
X4647691Y3249168D01*
X4663440Y3243834D01*
X4689347Y3243834D01*
X4704841Y3249168D01*
X4715256Y3254247D01*
X4725670Y3264662D01*
X4730750Y3275076D01*
X4730750Y3295904D01*
X4725670Y3306318D01*
X4715256Y3316731D01*
X4704841Y3321812D01*
X4621784Y3356102D02*
G01*
X4730750Y3356102D01*
X4730750Y3356102D02*
G01*
X4730750Y3418586D01*
X6885177Y4026407D02*
G01*
X6879843Y4036821D01*
X6869429Y4047236D01*
X6859270Y4052315D01*
X6838441Y4052315D01*
X6828027Y4047236D01*
X6817613Y4036821D01*
X6812279Y4026407D01*
X6807200Y4010660D01*
X6807200Y3984752D01*
X6812279Y3969257D01*
X6817613Y3958844D01*
X6828027Y3948429D01*
X6838441Y3943350D01*
X6859270Y3943350D01*
X6869429Y3948429D01*
X6879843Y3958844D01*
X6885177Y3969257D01*
X6919468Y4031487D02*
G01*
X6929881Y4036821D01*
X6945375Y4052315D01*
X6945375Y3943350D01*
X6599554Y4038219D02*
G01*
X6594220Y4048632D01*
X6583806Y4059046D01*
X6573647Y4064127D01*
X6552818Y4064127D01*
X6542404Y4059046D01*
X6531990Y4048632D01*
X6526656Y4038219D01*
X6521577Y4022470D01*
X6521577Y3996562D01*
X6526656Y3981069D01*
X6531990Y3970654D01*
X6542404Y3960240D01*
X6552818Y3955161D01*
X6573647Y3955161D01*
X6583806Y3960240D01*
X6594220Y3970654D01*
X6599554Y3981069D01*
X6638925Y4038219D02*
G01*
X6638925Y4043298D01*
X6644259Y4053712D01*
X6649338Y4059046D01*
X6659752Y4064127D01*
X6680581Y4064127D01*
X6690995Y4059046D01*
X6696075Y4053712D01*
X6701409Y4043298D01*
X6701409Y4032885D01*
X6696075Y4022470D01*
X6685661Y4006977D01*
X6633845Y3955161D01*
X6706488Y3955161D01*
X7112888Y5416930D02*
G01*
X7107554Y5427345D01*
X7097140Y5437759D01*
X7086981Y5442838D01*
X7066152Y5442838D01*
X7055738Y5437759D01*
X7045325Y5427345D01*
X7039990Y5416930D01*
X7034911Y5401182D01*
X7034911Y5375275D01*
X7039990Y5359780D01*
X7045325Y5349367D01*
X7055738Y5338953D01*
X7066152Y5333872D01*
X7086981Y5333872D01*
X7097140Y5338953D01*
X7107554Y5349367D01*
X7112888Y5359780D01*
X7157593Y5442838D02*
G01*
X7214743Y5442838D01*
X7183500Y5401182D01*
X7198995Y5401182D01*
X7209409Y5396103D01*
X7214743Y5391022D01*
X7219822Y5375275D01*
X7219822Y5364861D01*
X7214743Y5349367D01*
X7204329Y5338953D01*
X7188581Y5333872D01*
X7173086Y5333872D01*
X7157593Y5338953D01*
X7152259Y5344032D01*
X7147179Y5354446D01*
X7402322Y5406897D02*
G01*
X7396988Y5417312D01*
X7386574Y5427726D01*
X7376413Y5432805D01*
X7355586Y5432805D01*
X7345172Y5427726D01*
X7334758Y5417312D01*
X7329424Y5406897D01*
X7324343Y5391150D01*
X7324343Y5365242D01*
X7329424Y5349747D01*
X7334758Y5339334D01*
X7345172Y5328920D01*
X7355586Y5323839D01*
X7376413Y5323839D01*
X7386574Y5328920D01*
X7396988Y5339334D01*
X7402322Y5349747D01*
X7488427Y5432805D02*
G01*
X7436611Y5360162D01*
X7514590Y5360162D01*
X7488427Y5432805D02*
G01*
X7488427Y5323839D01*
X6559931Y3313811D02*
G01*
X6570345Y3319145D01*
X6580759Y3329559D01*
X6585838Y3339719D01*
X6585838Y3360546D01*
X6580759Y3370961D01*
X6570345Y3381375D01*
X6559931Y3386709D01*
X6544183Y3391788D01*
X6518275Y3391788D01*
X6502781Y3386709D01*
X6492366Y3381375D01*
X6481952Y3370961D01*
X6476872Y3360546D01*
X6476872Y3339719D01*
X6481952Y3329559D01*
X6492366Y3319145D01*
X6502781Y3313811D01*
X6585838Y3217290D02*
G01*
X6585838Y3269106D01*
X6539102Y3274440D01*
X6544183Y3269106D01*
X6549516Y3253612D01*
X6549516Y3238119D01*
X6544183Y3222370D01*
X6534022Y3211956D01*
X6518275Y3206877D01*
X6507861Y3206877D01*
X6492366Y3211956D01*
X6481952Y3222370D01*
X6476872Y3238119D01*
X6476872Y3253612D01*
X6481952Y3269106D01*
X6487033Y3274440D01*
X6497447Y3279520D01*
X5954140Y3300095D02*
G01*
X5943727Y3294761D01*
X5933313Y3284346D01*
X5928233Y3274187D01*
X5928233Y3253359D01*
X5933313Y3242945D01*
X5943727Y3232530D01*
X5954140Y3227196D01*
X5969888Y3222117D01*
X5995797Y3222117D01*
X6011290Y3227196D01*
X6021704Y3232530D01*
X6032118Y3242945D01*
X6037199Y3253359D01*
X6037199Y3274187D01*
X6032118Y3284346D01*
X6021704Y3294761D01*
X6011290Y3300095D01*
X5943727Y3396614D02*
G01*
X5933313Y3391535D01*
X5928233Y3375787D01*
X5928233Y3365627D01*
X5933313Y3349879D01*
X5949061Y3339464D01*
X5974968Y3334385D01*
X6000877Y3334385D01*
X6021704Y3339464D01*
X6032118Y3349879D01*
X6037199Y3365627D01*
X6037199Y3370706D01*
X6032118Y3386201D01*
X6021704Y3396614D01*
X6006211Y3401948D01*
X6000877Y3401948D01*
X5985383Y3396614D01*
X5974968Y3386201D01*
X5969888Y3370706D01*
X5969888Y3365627D01*
X5974968Y3349879D01*
X5985383Y3339464D01*
X6000877Y3334385D01*
X7389749Y4436490D02*
G01*
X7384415Y4446904D01*
X7374000Y4457319D01*
X7363840Y4462398D01*
X7343013Y4462398D01*
X7332599Y4457319D01*
X7322184Y4446904D01*
X7316850Y4436490D01*
X7311770Y4420743D01*
X7311770Y4394835D01*
X7316850Y4379340D01*
X7322184Y4368927D01*
X7332599Y4358512D01*
X7343013Y4353432D01*
X7363840Y4353432D01*
X7374000Y4358512D01*
X7384415Y4368927D01*
X7389749Y4379340D01*
X7496683Y4462398D02*
G01*
X7444866Y4353432D01*
X7424038Y4462398D02*
G01*
X7496683Y4462398D01*
X6102604Y3968750D02*
G01*
X6102604Y3890771D01*
X6107684Y3875278D01*
X6118097Y3864863D01*
X6133845Y3859784D01*
X6144259Y3859784D01*
X6159754Y3864863D01*
X6170168Y3875278D01*
X6175247Y3890771D01*
X6175247Y3968750D01*
X6209538Y3947921D02*
G01*
X6219952Y3953255D01*
X6235700Y3968750D01*
X6235700Y3859784D01*
X5060822Y3009772D02*
G01*
X5060822Y3087751D01*
X5055743Y3103245D01*
X5045329Y3113659D01*
X5029581Y3118738D01*
X5019166Y3118738D01*
X5003672Y3113659D01*
X4993259Y3103245D01*
X4988179Y3087751D01*
X4988179Y3009772D01*
X4901818Y3009772D02*
G01*
X4953888Y3082417D01*
X4875911Y3082417D01*
X4901818Y3009772D02*
G01*
X4901818Y3118738D01*
X5943600Y6236715D02*
G01*
X5943600Y6158737D01*
X5948679Y6143244D01*
X5959093Y6132829D01*
X5974841Y6127750D01*
X5985256Y6127750D01*
X6000750Y6132829D01*
X6011163Y6143244D01*
X6016243Y6158737D01*
X6016243Y6236715D01*
X6076695Y6236715D02*
G01*
X6060947Y6231636D01*
X6055868Y6221221D01*
X6055868Y6210807D01*
X6060947Y6200394D01*
X6071361Y6195060D01*
X6092190Y6189979D01*
X6107684Y6184900D01*
X6118097Y6174486D01*
X6123431Y6164071D01*
X6123431Y6148323D01*
X6118097Y6137910D01*
X6113018Y6132829D01*
X6097270Y6127750D01*
X6076695Y6127750D01*
X6060947Y6132829D01*
X6055868Y6137910D01*
X6050534Y6148323D01*
X6050534Y6164071D01*
X6055868Y6174486D01*
X6066281Y6184900D01*
X6081775Y6189979D01*
X6102604Y6195060D01*
X6113018Y6200394D01*
X6118097Y6210807D01*
X6118097Y6221221D01*
X6113018Y6231636D01*
X6097270Y6236715D01*
X6076695Y6236715D01*
D11*
X6794500Y2859278D02*
G01*
X6794500Y2665476D01*
X6794500Y2859278D02*
G01*
X6877558Y2859278D01*
X6905243Y2850134D01*
X6914641Y2840989D01*
X6923786Y2822447D01*
X6923786Y2803905D01*
X6914641Y2785363D01*
X6905243Y2776220D01*
X6877558Y2767076D01*
X6794500Y2767076D02*
G01*
X6877558Y2767076D01*
X6905243Y2757678D01*
X6914641Y2748534D01*
X6923786Y2729992D01*
X6923786Y2702305D01*
X6914641Y2683763D01*
X6905243Y2674620D01*
X6877558Y2665476D01*
X6794500Y2665476D01*
X6540500Y2859278D02*
G01*
X6540500Y2665476D01*
X6540500Y2859278D02*
G01*
X6623558Y2859278D01*
X6651243Y2850134D01*
X6660641Y2840989D01*
X6669786Y2822447D01*
X6669786Y2803905D01*
X6660641Y2785363D01*
X6651243Y2776220D01*
X6623558Y2767076D01*
X6540500Y2767076D01*
X6605270Y2767076D02*
G01*
X6669786Y2665476D01*
X6286500Y2859278D02*
G01*
X6286500Y2665476D01*
X6286500Y2859278D02*
G01*
X6351270Y2859278D01*
X6378956Y2850134D01*
X6397243Y2831592D01*
X6406641Y2813050D01*
X6415786Y2785363D01*
X6415786Y2739389D01*
X6406641Y2711450D01*
X6397243Y2693162D01*
X6378956Y2674620D01*
X6351270Y2665476D01*
X6286500Y2665476D01*
X6161786Y2831592D02*
G01*
X6143243Y2850134D01*
X6115558Y2859278D01*
X6078727Y2859278D01*
X6051041Y2850134D01*
X6032500Y2831592D01*
X6032500Y2813050D01*
X6041643Y2794762D01*
X6051041Y2785363D01*
X6069329Y2776220D01*
X6124956Y2757678D01*
X6143243Y2748534D01*
X6152641Y2739389D01*
X6161786Y2720847D01*
X6161786Y2693162D01*
X6143243Y2674620D01*
X6115558Y2665476D01*
X6078727Y2665476D01*
X6051041Y2674620D01*
X6032500Y2693162D01*
X5916929Y2813050D02*
G01*
X5907786Y2831592D01*
X5889243Y2850134D01*
X5870956Y2859278D01*
X5833872Y2859278D01*
X5815329Y2850134D01*
X5797041Y2831592D01*
X5787643Y2813050D01*
X5778500Y2785363D01*
X5778500Y2739389D01*
X5787643Y2711450D01*
X5797041Y2693162D01*
X5815329Y2674620D01*
X5833872Y2665476D01*
X5870956Y2665476D01*
X5889243Y2674620D01*
X5907786Y2693162D01*
X5916929Y2711450D01*
X5524500Y2859278D02*
G01*
X5524500Y2665476D01*
X5524500Y2859278D02*
G01*
X5589270Y2859278D01*
X5616956Y2850134D01*
X5635243Y2831592D01*
X5644641Y2813050D01*
X5653786Y2785363D01*
X5653786Y2739389D01*
X5644641Y2711450D01*
X5635243Y2693162D01*
X5616956Y2674620D01*
X5589270Y2665476D01*
X5524500Y2665476D01*
X5408929Y2813050D02*
G01*
X5399786Y2831592D01*
X5381243Y2850134D01*
X5362956Y2859278D01*
X5325872Y2859278D01*
X5307329Y2850134D01*
X5289041Y2831592D01*
X5279643Y2813050D01*
X5270500Y2785363D01*
X5270500Y2739389D01*
X5279643Y2711450D01*
X5289041Y2693162D01*
X5307329Y2674620D01*
X5325872Y2665476D01*
X5362956Y2665476D01*
X5381243Y2674620D01*
X5399786Y2693162D01*
X5408929Y2711450D01*
X5408929Y2739389D01*
X5362956Y2739389D02*
G01*
X5408929Y2739389D01*
X5016500Y2859278D02*
G01*
X5090413Y2665476D01*
X5164327Y2859278D02*
G01*
X5090413Y2665476D01*
D10*
X7178293Y4373118D02*
G01*
X7183627Y4362704D01*
X7194041Y4352289D01*
X7204202Y4347210D01*
X7225029Y4347210D01*
X7235443Y4352289D01*
X7245858Y4362704D01*
X7251191Y4373118D01*
X7256272Y4388865D01*
X7256272Y4414773D01*
X7251191Y4430268D01*
X7245858Y4440681D01*
X7235443Y4451095D01*
X7225029Y4456176D01*
X7204202Y4456176D01*
X7194041Y4451095D01*
X7183627Y4440681D01*
X7178293Y4430268D01*
X7118095Y4347210D02*
G01*
X7133590Y4352289D01*
X7138924Y4362704D01*
X7138924Y4373118D01*
X7133590Y4383531D01*
X7123175Y4388865D01*
X7102602Y4393945D01*
X7086854Y4399026D01*
X7076440Y4409439D01*
X7071359Y4419854D01*
X7071359Y4435602D01*
X7076440Y4446015D01*
X7081774Y4451095D01*
X7097268Y4456176D01*
X7118095Y4456176D01*
X7133590Y4451095D01*
X7138924Y4446015D01*
X7144004Y4435602D01*
X7144004Y4419854D01*
X7138924Y4409439D01*
X7128509Y4399026D01*
X7112761Y4393945D01*
X7092188Y4388865D01*
X7081774Y4383531D01*
X7076440Y4373118D01*
X7076440Y4362704D01*
X7081774Y4352289D01*
X7097268Y4347210D01*
X7118095Y4347210D01*
X7166102Y3688079D02*
G01*
X7166102Y3579113D01*
X7166102Y3688079D02*
G01*
X7212838Y3688079D01*
X7228331Y3683000D01*
X7233665Y3677665D01*
X7238745Y3667252D01*
X7238745Y3656837D01*
X7233665Y3646423D01*
X7228331Y3641344D01*
X7212838Y3636263D01*
X7166102Y3636263D01*
X7202424Y3636263D02*
G01*
X7238745Y3579113D01*
X7273036Y3667252D02*
G01*
X7283450Y3672586D01*
X7299197Y3688079D01*
X7299197Y3579113D01*
X7518400Y2856484D02*
G01*
X7518400Y2965450D01*
X7518400Y2856484D02*
G01*
X7471663Y2856484D01*
X7456170Y2861563D01*
X7450836Y2866897D01*
X7445756Y2877312D01*
X7445756Y2887726D01*
X7450836Y2898139D01*
X7456170Y2903220D01*
X7471663Y2908300D01*
X7518400Y2908300D01*
X7482077Y2908300D02*
G01*
X7445756Y2965450D01*
X7406131Y2882392D02*
G01*
X7406131Y2877312D01*
X7401052Y2866897D01*
X7395718Y2861563D01*
X7385304Y2856484D01*
X7364729Y2856484D01*
X7354315Y2861563D01*
X7348981Y2866897D01*
X7343902Y2877312D01*
X7343902Y2887726D01*
X7348981Y2898139D01*
X7359395Y2913634D01*
X7411465Y2965450D01*
X7338568Y2965450D01*
X7353300Y5893815D02*
G01*
X7353300Y5784850D01*
X7353300Y5893815D02*
G01*
X7400036Y5893815D01*
X7415529Y5888736D01*
X7420863Y5883402D01*
X7425943Y5872987D01*
X7425943Y5862573D01*
X7420863Y5852160D01*
X7415529Y5847079D01*
X7400036Y5842000D01*
X7353300Y5842000D01*
X7389622Y5842000D02*
G01*
X7425943Y5784850D01*
X7470647Y5893815D02*
G01*
X7527797Y5893815D01*
X7496809Y5852160D01*
X7512304Y5852160D01*
X7522718Y5847079D01*
X7527797Y5842000D01*
X7533131Y5826252D01*
X7533131Y5815837D01*
X7527797Y5800344D01*
X7517384Y5789929D01*
X7501890Y5784850D01*
X7486395Y5784850D01*
X7470647Y5789929D01*
X7465568Y5795010D01*
X7460234Y5805423D01*
X5943600Y6325615D02*
G01*
X5943600Y6247637D01*
X5948679Y6232144D01*
X5959093Y6221729D01*
X5974841Y6216650D01*
X5985256Y6216650D01*
X6000750Y6221729D01*
X6011163Y6232144D01*
X6016243Y6247637D01*
X6016243Y6325615D01*
X6055868Y6299707D02*
G01*
X6055868Y6304787D01*
X6060947Y6315202D01*
X6066281Y6320536D01*
X6076695Y6325615D01*
X6097270Y6325615D01*
X6107684Y6320536D01*
X6113018Y6315202D01*
X6118097Y6304787D01*
X6118097Y6294373D01*
X6113018Y6283960D01*
X6102604Y6268465D01*
X6050534Y6216650D01*
X6123431Y6216650D01*
D12*
X5342127Y5019802D02*
G01*
X5342127Y4943347D01*
X5342127Y5019802D02*
G01*
X5374640Y5019802D01*
X5385561Y5016245D01*
X5389372Y5012436D01*
X5392927Y5005323D01*
X5392927Y4997957D01*
X5389372Y4990845D01*
X5385561Y4987036D01*
X5374640Y4983479D01*
X5342127Y4983479D02*
G01*
X5374640Y4983479D01*
X5385561Y4979923D01*
X5389372Y4976113D01*
X5392927Y4969002D01*
X5392927Y4958079D01*
X5389372Y4950713D01*
X5385561Y4947157D01*
X5374640Y4943347D01*
X5342127Y4943347D01*
X5446013Y5019802D02*
G01*
X5416804Y4943347D01*
X5446013Y5019802D02*
G01*
X5474970Y4943347D01*
X5427725Y4969002D02*
G01*
X5464302Y4969002D01*
X5524500Y5019802D02*
G01*
X5524500Y4943347D01*
X5499100Y5019802D02*
G01*
X5549900Y5019802D01*
X5606795Y5008879D02*
G01*
X5606795Y4943347D01*
X5574029Y4976113D02*
G01*
X5639561Y4976113D01*
X5342127Y5474207D02*
G01*
X5342127Y5397754D01*
X5342127Y5474207D02*
G01*
X5374640Y5474207D01*
X5385561Y5470652D01*
X5389372Y5466842D01*
X5392927Y5459729D01*
X5392927Y5452363D01*
X5389372Y5444997D01*
X5385561Y5441442D01*
X5374640Y5437886D01*
X5342127Y5437886D02*
G01*
X5374640Y5437886D01*
X5385561Y5434329D01*
X5389372Y5430520D01*
X5392927Y5423407D01*
X5392927Y5412486D01*
X5389372Y5405120D01*
X5385561Y5401563D01*
X5374640Y5397754D01*
X5342127Y5397754D01*
X5446013Y5474207D02*
G01*
X5416804Y5397754D01*
X5446013Y5474207D02*
G01*
X5474970Y5397754D01*
X5427725Y5423407D02*
G01*
X5464302Y5423407D01*
X5524500Y5474207D02*
G01*
X5524500Y5397754D01*
X5499100Y5474207D02*
G01*
X5549900Y5474207D01*
X5574029Y5430520D02*
G01*
X5639561Y5430520D01*
D13*
X6290485Y4305355D02*
G01*
X6357287Y4305355D01*
X6290485Y4305355D02*
G01*
X6357287Y4349805D01*
X6290485Y4349805D02*
G01*
X6357287Y4349805D01*
X6290485Y4370887D02*
G01*
X6357287Y4370887D01*
X6290485Y4370887D02*
G01*
X6290485Y4412289D01*
X6322489Y4370887D02*
G01*
X6322489Y4396287D01*
X6306487Y4480869D02*
G01*
X6300137Y4477821D01*
X6293787Y4471471D01*
X6290485Y4465121D01*
X6290485Y4452421D01*
X6293787Y4445817D01*
X6300137Y4439467D01*
X6306487Y4436419D01*
X6316139Y4433117D01*
X6331887Y4433117D01*
X6341539Y4436419D01*
X6347889Y4439467D01*
X6354239Y4445817D01*
X6357287Y4452421D01*
X6357287Y4465121D01*
X6354239Y4471471D01*
X6347889Y4477821D01*
X6341539Y4480869D01*
X6303185Y4501951D02*
G01*
X6300137Y4508301D01*
X6290485Y4517953D01*
X6357287Y4517953D01*
X6482486Y4305378D02*
G01*
X6549288Y4305378D01*
X6482486Y4305378D02*
G01*
X6549288Y4349828D01*
X6482486Y4349828D02*
G01*
X6549288Y4349828D01*
X6482486Y4370910D02*
G01*
X6549288Y4370910D01*
X6482486Y4370910D02*
G01*
X6482486Y4412312D01*
X6514490Y4370910D02*
G01*
X6514490Y4396310D01*
X6498488Y4480892D02*
G01*
X6492138Y4477844D01*
X6485788Y4471494D01*
X6482486Y4465144D01*
X6482486Y4452190D01*
X6485788Y4445840D01*
X6492138Y4439490D01*
X6498488Y4436442D01*
X6508140Y4433140D01*
X6523888Y4433140D01*
X6533540Y4436442D01*
X6539890Y4439490D01*
X6546240Y4445840D01*
X6549288Y4452190D01*
X6549288Y4465144D01*
X6546240Y4471494D01*
X6539890Y4477844D01*
X6533540Y4480892D01*
X6498488Y4505022D02*
G01*
X6495186Y4505022D01*
X6488836Y4508324D01*
X6485788Y4511372D01*
X6482486Y4517722D01*
X6482486Y4530676D01*
X6485788Y4537026D01*
X6488836Y4540074D01*
X6495186Y4543376D01*
X6501536Y4543376D01*
X6508140Y4540074D01*
X6517538Y4533724D01*
X6549288Y4501974D01*
X6549288Y4546424D01*
D14*
X5399277Y4289297D02*
G01*
X5359400Y4184395D01*
X5399277Y4289297D02*
G01*
X5439409Y4184395D01*
X5374386Y4219194D02*
G01*
X5424424Y4219194D01*
X5472429Y4289297D02*
G01*
X5472429Y4184395D01*
X5472429Y4289297D02*
G01*
X5542279Y4184395D01*
X5542279Y4289297D02*
G01*
X5542279Y4184395D01*
X5610352Y4289297D02*
G01*
X5610352Y4184395D01*
X5575300Y4289297D02*
G01*
X5645404Y4289297D01*
X5678424Y4149344D02*
G01*
X5768340Y4149344D01*
X5801359Y4289297D02*
G01*
X5801359Y4184395D01*
X5801359Y4289297D02*
G01*
X5866384Y4289297D01*
X5801359Y4239260D02*
G01*
X5841491Y4239260D01*
X5899404Y4289297D02*
G01*
X5899404Y4184395D01*
X5899404Y4289297D02*
G01*
X5944361Y4289297D01*
X5959347Y4284218D01*
X5964427Y4279392D01*
X5969508Y4269231D01*
X5969508Y4259326D01*
X5964427Y4249420D01*
X5959347Y4244339D01*
X5944361Y4239260D01*
X5899404Y4239260D01*
X5934456Y4239260D02*
G01*
X5969508Y4184395D01*
X6002274Y4289297D02*
G01*
X6002274Y4184395D01*
X6002274Y4289297D02*
G01*
X6067297Y4289297D01*
X6002274Y4239260D02*
G01*
X6042406Y4239260D01*
X6002274Y4184395D02*
G01*
X6067297Y4184395D01*
X6100318Y4289297D02*
G01*
X6100318Y4184395D01*
X6100318Y4289297D02*
G01*
X6165341Y4289297D01*
X6100318Y4239260D02*
G01*
X6140450Y4239260D01*
X6100318Y4184395D02*
G01*
X6165341Y4184395D01*
D10*
X3607815Y2984500D02*
G01*
X3529838Y2984500D01*
X3514343Y2979420D01*
X3503929Y2969005D01*
X3498850Y2953257D01*
X3498850Y2942844D01*
X3503929Y2927350D01*
X3514343Y2916936D01*
X3529838Y2911855D01*
X3607815Y2911855D01*
X3607815Y2815081D02*
G01*
X3607815Y2867152D01*
X3561079Y2872231D01*
X3566159Y2867152D01*
X3571493Y2851404D01*
X3571493Y2835910D01*
X3566159Y2820415D01*
X3556000Y2810002D01*
X3540252Y2804668D01*
X3529838Y2804668D01*
X3514343Y2810002D01*
X3503929Y2820415D01*
X3498850Y2835910D01*
X3498850Y2851404D01*
X3503929Y2867152D01*
X3509009Y2872231D01*
X3519424Y2877565D01*
X5995415Y3733800D02*
G01*
X5917438Y3733800D01*
X5901943Y3728720D01*
X5891529Y3718305D01*
X5886450Y3702557D01*
X5886450Y3692144D01*
X5891529Y3676650D01*
X5901943Y3666236D01*
X5917438Y3661155D01*
X5995415Y3661155D01*
X5995415Y3553968D02*
G01*
X5886450Y3606037D01*
X5995415Y3626865D02*
G01*
X5995415Y3553968D01*
X4875784Y4152900D02*
G01*
X4984750Y4225544D01*
X4875784Y4225544D02*
G01*
X4984750Y4152900D01*
X4896611Y4259834D02*
G01*
X4891277Y4270247D01*
X4875784Y4285995D01*
X4984750Y4285995D01*
X4750815Y4267200D02*
G01*
X4641850Y4267200D01*
X4750815Y4267200D02*
G01*
X4750815Y4230878D01*
X4745736Y4215129D01*
X4735322Y4204970D01*
X4724908Y4199636D01*
X4709159Y4194555D01*
X4683252Y4194555D01*
X4667758Y4199636D01*
X4657343Y4204970D01*
X4646929Y4215129D01*
X4641850Y4230878D01*
X4641850Y4267200D01*
X4750815Y4160265D02*
G01*
X4641850Y4160265D01*
X4750815Y4160265D02*
G01*
X4750815Y4092702D01*
X4699000Y4160265D02*
G01*
X4699000Y4118610D01*
X4641850Y4160265D02*
G01*
X4641850Y4092702D01*
X4724908Y3980434D02*
G01*
X4735322Y3985513D01*
X4745736Y3995928D01*
X4750815Y4006342D01*
X4750815Y4027170D01*
X4745736Y4037584D01*
X4735322Y4047997D01*
X4724908Y4053078D01*
X4709159Y4058412D01*
X4683252Y4058412D01*
X4667758Y4053078D01*
X4657343Y4047997D01*
X4646929Y4037584D01*
X4641850Y4027170D01*
X4641850Y4006342D01*
X4646929Y3995928D01*
X4657343Y3985513D01*
X4667758Y3980434D01*
X4801615Y5029200D02*
G01*
X4692650Y5029200D01*
X4801615Y5029200D02*
G01*
X4692650Y4987544D01*
X4801615Y4946142D02*
G01*
X4692650Y4987544D01*
X4801615Y4946142D02*
G01*
X4692650Y4946142D01*
X4801615Y4911852D02*
G01*
X4692650Y4911852D01*
X4801615Y4911852D02*
G01*
X4801615Y4844287D01*
X4749800Y4911852D02*
G01*
X4749800Y4870195D01*
X4692650Y4911852D02*
G01*
X4692650Y4844287D01*
X4801615Y4809997D02*
G01*
X4692650Y4809997D01*
X4801615Y4809997D02*
G01*
X4692650Y4737100D01*
X4801615Y4737100D02*
G01*
X4692650Y4737100D01*
X4801615Y4702810D02*
G01*
X4723638Y4702810D01*
X4708143Y4697729D01*
X4697729Y4687315D01*
X4692650Y4671821D01*
X4692650Y4661407D01*
X4697729Y4645660D01*
X4708143Y4635500D01*
X4723638Y4630165D01*
X4801615Y4630165D01*
X4780000Y5574080D02*
G01*
X4670780Y5574080D01*
X4780000Y5539790D02*
G01*
X4670780Y5539790D01*
X4780000Y5539790D02*
G01*
X4670780Y5467146D01*
X4780000Y5467146D02*
G01*
X4670780Y5467146D01*
X4753838Y5354878D02*
G01*
X4764252Y5360212D01*
X4774666Y5370626D01*
X4780000Y5381040D01*
X4780000Y5401614D01*
X4774666Y5412028D01*
X4764252Y5422442D01*
X4753838Y5427776D01*
X4738344Y5432856D01*
X4712436Y5432856D01*
X4696688Y5427776D01*
X4686528Y5422442D01*
X4676114Y5412028D01*
X4670780Y5401614D01*
X4670780Y5381040D01*
X4676114Y5370626D01*
X4686528Y5360212D01*
X4696688Y5354878D01*
G36*
X6261100Y4292600D02*
G01*
X6261100Y4051300D01*
X6388100Y4051300D01*
X6388100Y4292600D01*
G37*
G36*
X6451600Y4292600D02*
G01*
X6451600Y4051300D01*
X6578600Y4051300D01*
X6578600Y4292600D01*
G37*
X6736039Y3886019D02*
G01*
X6736039Y3737521D01*
X6954560Y3737521D02*
G01*
X6954560Y3886019D01*
X6939320Y3901259D02*
G01*
X6751279Y3901259D01*
X6736039Y3403780D02*
G01*
X6736039Y3552278D01*
X6954560Y3552278D02*
G01*
X6954560Y3403780D01*
X6939320Y3388540D02*
G01*
X6751279Y3388540D01*
X6700560Y3403780D02*
G01*
X6700560Y3552278D01*
X6482039Y3552278D02*
G01*
X6482039Y3403780D01*
X6497279Y3388540D02*
G01*
X6685320Y3388540D01*
X6700560Y3886019D02*
G01*
X6700560Y3737521D01*
X6482039Y3737521D02*
G01*
X6482039Y3886019D01*
X6497279Y3901259D02*
G01*
X6685320Y3901259D01*
X7015439Y5283019D02*
G01*
X7015439Y5134521D01*
X7233960Y5134521D02*
G01*
X7233960Y5283019D01*
X7218720Y5298259D02*
G01*
X7030679Y5298259D01*
X7015439Y4800780D02*
G01*
X7015439Y4949278D01*
X7233960Y4949278D02*
G01*
X7233960Y4800780D01*
X7218720Y4785540D02*
G01*
X7030679Y4785540D01*
X7307539Y5283019D02*
G01*
X7307539Y5134521D01*
X7526060Y5134521D02*
G01*
X7526060Y5283019D01*
X7510820Y5298259D02*
G01*
X7322779Y5298259D01*
X7307539Y4800780D02*
G01*
X7307539Y4949278D01*
X7526060Y4949278D02*
G01*
X7526060Y4800780D01*
X7510820Y4785540D02*
G01*
X7322779Y4785540D01*
X6413319Y3423960D02*
G01*
X6264821Y3423960D01*
X6264821Y3205439D02*
G01*
X6413319Y3205439D01*
X6428559Y3220679D02*
G01*
X6428559Y3408720D01*
X5931080Y3423960D02*
G01*
X6079578Y3423960D01*
X6079578Y3205439D02*
G01*
X5931080Y3205439D01*
X5915840Y3220679D02*
G01*
X5915840Y3408720D01*
X5841819Y3411260D02*
G01*
X5693321Y3411260D01*
X5693321Y3192739D02*
G01*
X5841819Y3192739D01*
X5857059Y3207979D02*
G01*
X5857059Y3396020D01*
X5359580Y3411260D02*
G01*
X5508078Y3411260D01*
X5508078Y3192739D02*
G01*
X5359580Y3192739D01*
X5344340Y3207979D02*
G01*
X5344340Y3396020D01*
X7517043Y3808529D02*
G01*
X7517043Y3957027D01*
X7298522Y3957027D02*
G01*
X7298522Y3808529D01*
X7313762Y3793289D02*
G01*
X7501803Y3793289D01*
X7517043Y4290768D02*
G01*
X7517043Y4142270D01*
X7298522Y4142270D02*
G01*
X7298522Y4290768D01*
X7313762Y4306008D02*
G01*
X7501803Y4306008D01*
X6064981Y3815618D02*
G01*
X6330218Y3815618D01*
X6064981Y3550381D02*
G01*
X6330218Y3550381D01*
X4799380Y3415007D02*
G01*
X4799380Y3239767D01*
X4903541Y3239767D01*
X5106619Y3415007D02*
G01*
X5106619Y3239767D01*
X5002458Y3239767D01*
X4907460Y3415007D02*
G01*
X4998539Y3415007D01*
X7263043Y3808529D02*
G01*
X7263043Y3957027D01*
X7044522Y3957027D02*
G01*
X7044522Y3808529D01*
X7059762Y3793289D02*
G01*
X7247803Y3793289D01*
X7263043Y4290768D02*
G01*
X7263043Y4142270D01*
X7044522Y4142270D02*
G01*
X7044522Y4290768D01*
X7059762Y4306008D02*
G01*
X7247803Y4306008D01*
X7334120Y3333790D02*
G01*
X7470112Y3333790D01*
X7470112Y3549609D01*
X7334120Y3549609D01*
X7143879Y3333790D02*
G01*
X7007887Y3333790D01*
X7007887Y3549609D01*
X7143879Y3549609D01*
X7334120Y3067090D02*
G01*
X7470112Y3067090D01*
X7470112Y3282909D01*
X7334120Y3282909D01*
X7143879Y3067090D02*
G01*
X7007887Y3067090D01*
X7007887Y3282909D01*
X7143879Y3282909D01*
X7334120Y5518190D02*
G01*
X7470112Y5518190D01*
X7470112Y5734009D01*
X7334120Y5734009D01*
X7143879Y5518190D02*
G01*
X7007887Y5518190D01*
X7007887Y5734009D01*
X7143879Y5734009D01*
D15*
X5245102Y4044822D02*
G01*
X6642097Y4044822D01*
X6642097Y4045082D02*
G01*
X5245102Y4045082D01*
X6832727Y4235452D02*
G01*
X6832727Y5949947D01*
X6642097Y6140577D02*
G01*
X5245102Y6140577D01*
X5054732Y4235452D02*
G01*
X5054732Y5949947D01*
X5054472Y5949947D02*
G01*
X5054472Y4235452D01*
X6832467Y5949947D02*
G01*
X6832467Y4235452D01*
X5245102Y6140317D02*
G01*
X6642097Y6140317D01*
D13*
X5308600Y4406900D02*
G01*
X6208598Y4406900D01*
X6208598Y4056887D01*
X5308600Y4056887D01*
X5308600Y4406900D01*
D16*
X4319846Y3588463D02*
G01*
X4319846Y3587224D01*
X3725872Y3587224D01*
X3725872Y3525248D01*
X3725534Y3525248D01*
X3725534Y3525840D01*
X4324212Y3525840D01*
X4319846Y2825750D02*
G01*
X4319846Y2824510D01*
X3725872Y2824510D01*
X3725872Y2762534D01*
X3725534Y2762534D01*
X3725534Y2763126D01*
X4324212Y2763126D01*
X4319844Y3083747D02*
G01*
X4319844Y3082508D01*
X3725870Y3082508D01*
X3725870Y3020532D01*
X3725532Y3020532D01*
X3725532Y3021124D01*
X4324210Y3021124D01*
X4319844Y3331349D02*
G01*
X4319844Y3330110D01*
X3725870Y3330110D01*
X3725870Y3268134D01*
X3725532Y3268134D01*
X3725532Y3268726D01*
X4324210Y3268726D01*
X4584700Y3683000D02*
G01*
X4330700Y3683000D01*
X4330700Y2667000D01*
X4584700Y2667000D01*
X4584700Y3683000D01*
D10*
X5346959Y3966019D02*
G01*
X5651240Y3966019D01*
X5651240Y3450780D01*
X5346959Y3450780D01*
X5346959Y3966019D01*
X5010061Y3708740D02*
G01*
X4794338Y3708740D01*
X4794338Y4114459D01*
X5010061Y4114459D01*
X5010061Y3708740D01*
D16*
X4305498Y3829397D02*
G01*
X4305498Y3779400D01*
X4327385Y3779400D02*
G01*
X4306750Y3779400D01*
X4489686Y3779400D02*
G01*
X4453613Y3779400D01*
X4561748Y4221281D02*
G01*
X4561748Y3957513D01*
X4453613Y4399399D02*
G01*
X4489688Y4399399D01*
X4305498Y4349396D02*
G01*
X4305498Y4399399D01*
X4327385Y4399399D01*
X4205498Y3999397D02*
G01*
X4305498Y3999397D01*
X4205498Y4179397D02*
G01*
X4305498Y4179397D01*
X4205498Y3999397D02*
G01*
X4205498Y4179397D01*
X4305498Y4349396D02*
G01*
X4305498Y3829397D01*
X4305498Y4559647D02*
G01*
X4305498Y4509650D01*
X4327385Y4509650D02*
G01*
X4306750Y4509650D01*
X4489686Y4509650D02*
G01*
X4453613Y4509650D01*
X4561748Y4951531D02*
G01*
X4561748Y4687763D01*
X4453613Y5129649D02*
G01*
X4489688Y5129649D01*
X4305498Y5079646D02*
G01*
X4305498Y5129649D01*
X4327385Y5129649D01*
X4205498Y4729647D02*
G01*
X4305498Y4729647D01*
X4205498Y4909647D02*
G01*
X4305498Y4909647D01*
X4205498Y4729647D02*
G01*
X4205498Y4909647D01*
X4305498Y5079646D02*
G01*
X4305498Y4559647D01*
X4305498Y5289897D02*
G01*
X4305498Y5239900D01*
X4327385Y5239900D02*
G01*
X4306750Y5239900D01*
X4489686Y5239900D02*
G01*
X4453613Y5239900D01*
X4561748Y5681781D02*
G01*
X4561748Y5418013D01*
X4453613Y5859899D02*
G01*
X4489688Y5859899D01*
X4305498Y5809896D02*
G01*
X4305498Y5859899D01*
X4327385Y5859899D01*
X4205498Y5459897D02*
G01*
X4305498Y5459897D01*
X4205498Y5639897D02*
G01*
X4305498Y5639897D01*
X4205498Y5459897D02*
G01*
X4205498Y5639897D01*
X4305498Y5809896D02*
G01*
X4305498Y5289897D01*
D10*
G75*
G01*
X6954561Y3886020D02*
G03*
X6939321Y3901260I-15240J0D01*
G75*
G01*
X6751279Y3901260D02*
G03*
X6736039Y3886020I0J-15240D01*
G75*
G01*
X6954561Y3403780D02*
G02*
X6939321Y3388540I-15240J0D01*
G75*
G01*
X6751279Y3388540D02*
G02*
X6736039Y3403780I0J15240D01*
G75*
G01*
X6482039Y3403780D02*
G03*
X6497279Y3388540I15240J0D01*
G75*
G01*
X6685321Y3388540D02*
G03*
X6700561Y3403780I0J15240D01*
G75*
G01*
X6482039Y3886020D02*
G02*
X6497279Y3901260I15240J0D01*
G75*
G01*
X6685321Y3901260D02*
G02*
X6700561Y3886020I0J-15240D01*
G75*
G01*
X7233961Y5283020D02*
G03*
X7218721Y5298260I-15240J0D01*
G75*
G01*
X7030679Y5298260D02*
G03*
X7015439Y5283020I0J-15240D01*
G75*
G01*
X7233961Y4800780D02*
G02*
X7218721Y4785540I-15240J0D01*
G75*
G01*
X7030679Y4785540D02*
G02*
X7015439Y4800780I0J15240D01*
G75*
G01*
X7526061Y5283020D02*
G03*
X7510821Y5298260I-15240J0D01*
G75*
G01*
X7322779Y5298260D02*
G03*
X7307539Y5283020I0J-15240D01*
G75*
G01*
X7526061Y4800780D02*
G02*
X7510821Y4785540I-15240J0D01*
G75*
G01*
X7322779Y4785540D02*
G02*
X7307539Y4800780I0J15240D01*
G75*
G01*
X6413320Y3205439D02*
G03*
X6428560Y3220679I0J15240D01*
G75*
G01*
X6428560Y3408721D02*
G03*
X6413320Y3423961I-15240J0D01*
G75*
G01*
X5931080Y3205439D02*
G02*
X5915840Y3220679I0J15240D01*
G75*
G01*
X5915840Y3408721D02*
G02*
X5931080Y3423961I15240J0D01*
G75*
G01*
X5841820Y3192739D02*
G03*
X5857060Y3207979I0J15240D01*
G75*
G01*
X5857060Y3396021D02*
G03*
X5841820Y3411261I-15240J0D01*
G75*
G01*
X5359580Y3192739D02*
G02*
X5344340Y3207979I0J15240D01*
G75*
G01*
X5344340Y3396021D02*
G02*
X5359580Y3411261I15240J0D01*
G75*
G01*
X7298522Y3808529D02*
G03*
X7313762Y3793289I15240J0D01*
G75*
G01*
X7501804Y3793289D02*
G03*
X7517044Y3808529I0J15240D01*
G75*
G01*
X7298522Y4290769D02*
G02*
X7313762Y4306009I15240J0D01*
G75*
G01*
X7501804Y4306009D02*
G02*
X7517044Y4290769I0J-15240D01*
G75*
G01*
X7044522Y3808529D02*
G03*
X7059762Y3793289I15240J0D01*
G75*
G01*
X7247804Y3793289D02*
G03*
X7263044Y3808529I0J15240D01*
G75*
G01*
X7044522Y4290769D02*
G02*
X7059762Y4306009I15240J0D01*
G75*
G01*
X7247804Y4306009D02*
G02*
X7263044Y4290769I0J-15240D01*
D15*
G75*
G01*
X5245103Y6140577D02*
G03*
X5245103Y6140318I0J-130D01*
G75*
G01*
X6642097Y6140318D02*
G03*
X6642097Y6140577I0J129D01*
G75*
G01*
X5245103Y6140318D02*
G03*
X5245103Y6140577I0J129D01*
G75*
G01*
X5245103Y6140577D02*
G03*
X5054473Y5949947I5J-190635D01*
G75*
G01*
X5054473Y5949947D02*
G03*
X5054732Y5949947I130J0D01*
G75*
G01*
X5054732Y4235453D02*
G03*
X5054473Y4235453I-129J0D01*
G75*
G01*
X5245103Y4044823D02*
G03*
X5245103Y4045082I0J130D01*
G75*
G01*
X5245103Y4045082D02*
G02*
X5054732Y4235453I2J190373D01*
G75*
G01*
X6642097Y4044823D02*
G03*
X6642097Y4045082I0J130D01*
G75*
G01*
X5245103Y4045082D02*
G03*
X5245103Y4044823I0J-129D01*
G75*
G01*
X6642097Y4045082D02*
G03*
X6642097Y4044823I0J-129D01*
G75*
G01*
X6832468Y4235453D02*
G02*
X6642097Y4045082I-190373J2D01*
G75*
G01*
X6832727Y5949947D02*
G03*
X6642097Y6140577I-190635J-5D01*
G75*
G01*
X6642097Y6140577D02*
G03*
X6642097Y6140318I0J-130D01*
G75*
G01*
X5054732Y5949947D02*
G03*
X5054473Y5949947I-129J0D01*
G75*
G01*
X5054473Y4235453D02*
G03*
X5054732Y4235453I130J0D01*
G75*
G01*
X6642097Y6140318D02*
G02*
X6832468Y5949947I-2J-190373D01*
G75*
G01*
X5054732Y5949947D02*
G02*
X5245103Y6140318I190373J-2D01*
G75*
G01*
X5054473Y4235453D02*
G03*
X5245103Y4044823I190635J5D01*
G75*
G01*
X6642097Y4044823D02*
G03*
X6832727Y4235453I-5J190635D01*
D14*
G75*
G01
X6156808Y3581400D02*
G03X6156808Y3581400I-10008J0D01*
D17*
G75*
G01
X6212611Y3771900D02*
G03X6212611Y3771900I-15011J0D01*
G75*
G01
X5437200Y3898900D02*
G03X5437200Y3898900I-15011J0D01*
G75*
G01
X5245862Y3975633D02*
G03X5245862Y3975633I-15011J0D01*
M02*
